<?xml version="1.0" encoding="UTF-8"?>
<svg width="200px" height="200px" viewBox="0 0 200 200" version="1.1" xmlns="http://www.w3.org/2000/svg" xmlns:xlink="http://www.w3.org/1999/xlink">
    <!-- Generator: Sketch 49.2 (51160) - http://www.bohemiancoding.com/sketch -->
    <title>Artboard 2</title>
    <desc>Created with Sketch.</desc>
    <defs></defs>
    <g id="Artboard-2" stroke="none" stroke-width="1" fill="none" fill-rule="evenodd">
        <g id="success" fill="#11151C" fill-rule="nonzero">
            <path d="M100,0 C44.8615385,0 0,44.8576923 0,100 C0,155.142308 44.8615385,200 100,200 C155.138462,200 200,155.142308 200,100 C200,44.8576923 155.138462,0 100,0 Z M155.75,66.65 L94.2115385,135.880769 C92.6961538,137.584615 90.5846154,138.461538 88.4576923,138.461538 C86.7692308,138.461538 85.0730769,137.907692 83.6538462,136.776923 L45.1923077,106.007692 C41.8769231,103.357692 41.3384615,98.5153846 43.9923077,95.1961538 C46.6423077,91.8769231 51.4884615,91.3384615 54.8038462,93.9923077 L87.5615385,120.196154 L144.25,56.4230769 C147.065385,53.2461538 151.934615,52.9615385 155.107692,55.7846154 C158.284615,58.6115385 158.573077,63.4730769 155.75,66.65 Z" id="Shape"></path>
        </g>
    </g>
</svg>